HIERARCHY
ROOT hip
{
	OFFSET 0.000000 0.000000 0.000000 
	CHANNELS 6 Xposition Yposition Zposition Xrotation Zrotation Yrotation
	JOINT abdomen
	{
		OFFSET 0.000000 3.402643 0.000000 
		CHANNELS 3 Xrotation Zrotation Yrotation
		JOINT chest
		{
			OFFSET 0.000000 8.438565 -0.680529 
			CHANNELS 3 Xrotation Zrotation Yrotation
			JOINT neck
			{
				OFFSET 0.000000 10.207942 -0.272212 
				CHANNELS 3 Xrotation Zrotation Yrotation
				JOINT head
				{
					OFFSET 0.000000 3.130431 0.000000 
					CHANNELS 3 Xrotation Zrotation Yrotation
					End Site
					{
						OFFSET 0.000000 3.130435 0.000000 
					}
				}
			}
			JOINT lCollar
			{
				OFFSET 3.470700 6.669187 -0.816635 
				CHANNELS 3 Yrotation Zrotation Xrotation
				JOINT lShldr
				{
					OFFSET 3.198488 0.000000 0.000000 
					CHANNELS 3 Zrotation Yrotation Xrotation
					JOINT lForeArm
					{
						OFFSET 10.139888 0.000000 0.000000 
						CHANNELS 3 Yrotation Zrotation Xrotation
						JOINT lHand
						{
							OFFSET 8.370511 0.000000 0.000000 
							CHANNELS 3 Zrotation Yrotation Xrotation
							End Site
							{
								OFFSET 4.083176 0.000000 0.000000 
							}
						}
					}
				}
			}
			JOINT rCollar
			{
				OFFSET -3.470700 6.669187 -0.816635 
				CHANNELS 3 Yrotation Zrotation Xrotation
				JOINT rShldr
				{
					OFFSET -3.198488 0.000000 0.000000 
					CHANNELS 3 Zrotation Yrotation Xrotation
					JOINT rForeArm
					{
						OFFSET -10.139888 0.000000 0.000000 
						CHANNELS 3 Yrotation Zrotation Xrotation
						JOINT rHand
						{
							OFFSET -8.370511 0.000000 0.000000 
							CHANNELS 3 Zrotation Yrotation Xrotation
							End Site
							{
								OFFSET -4.083176 0.000000 0.000000 
							}
						}
					}
				}
			}
		}
	}
	JOINT lThigh
	{
		OFFSET 5.308129 -1.633274 1.361059 
		CHANNELS 3 Xrotation Zrotation Yrotation
		JOINT lShin
		{
			OFFSET -2.041588 -20.007561 0.000000 
			CHANNELS 3 Xrotation Zrotation Yrotation
			JOINT lFoot
			{
				OFFSET 0.000000 -19.190928 -1.224953 
				CHANNELS 3 Xrotation Yrotation Zrotation
				End Site
				{
					OFFSET 0.000000 -2.449906 4.627600 
				}
			}
		}
	}
	JOINT rThigh
	{
		OFFSET -5.308129 -1.633274 1.361059 
		CHANNELS 3 Xrotation Zrotation Yrotation
		JOINT rShin
		{
			OFFSET 2.041588 -20.007561 0.000000 
			CHANNELS 3 Xrotation Zrotation Yrotation
			JOINT rFoot
			{
				OFFSET 0.000000 -19.190928 -1.224953 
				CHANNELS 3 Xrotation Yrotation Zrotation
				End Site
				{
					OFFSET 0.000000 -2.449906 4.627600 
				}
			}
		}
	}
}
MOTION
Frames: 17
Frame Time: 0.033333
-40.604176 49.941761 -1.870494 0.439890 2.019825 8.267220 0.000000 0.000000 0.000000 -1.388659 0.214835 -0.517574 -2.060340 0.302734 0.039114 13.716708 -0.781240 0.292942 -7.314653 0.910949 -0.629669 -70.252747 10.844143 22.183065 -53.392666 -9.199196 29.078943 1.133266 8.369042 -3.516238 7.300380 7.372156 -1.173011 52.187183 -13.993564 26.939058 49.076385 9.895620 28.625093 -6.385985 -9.248498 -3.262344 0.633377 6.721070 8.629841 26.640863 -3.595868 5.103745 -11.086174 -0.157296 1.668038 -2.498415 -6.019253 -7.139847 7.633910 4.762232 -15.399487 -3.703936 0.031651 -1.752689 
-40.229572 50.016666 -1.963399 2.786316 0.597025 9.580673 0.000000 0.000000 0.000000 -4.219610 0.742111 -0.820370 -5.373850 0.449210 -0.351552 14.472416 -0.351562 0.039062 -6.695397 4.351764 -3.004734 -71.648262 13.505858 23.938574 -54.879303 -9.437352 28.600338 -1.120352 9.431226 -3.650624 6.846207 4.617698 -3.602167 55.053276 -16.620735 27.656380 49.915840 9.924409 29.970608 -4.955469 -9.895791 -3.322383 -0.771543 7.086235 8.112225 24.095722 -3.371650 5.052637 -11.499578 -0.175750 1.562891 -4.059541 -5.346443 -6.376715 5.788792 4.773692 -17.470932 -2.624333 0.027014 -1.453547 
-39.862225 50.069687 -2.057250 3.460664 0.710760 10.411043 0.000000 0.000000 0.000000 -5.636104 0.117180 -0.654296 -7.334660 0.068356 -0.566406 15.741369 0.117185 -0.400390 -5.567309 7.052117 -4.256523 -72.714279 15.206648 25.206251 -55.713421 -9.412455 30.313820 -4.851622 9.374805 -3.834093 7.235768 2.651659 -4.735209 56.813526 -19.340118 27.782841 50.838226 9.530254 31.088600 -3.484843 -9.884506 -3.405111 -0.420328 6.211285 7.483809 21.879635 -3.409347 5.261171 -11.431491 -0.184187 1.960110 -4.539093 -5.856127 -6.341903 5.457058 4.420040 -18.427668 -2.258517 -0.003878 -1.348520 
-39.493641 50.103615 -2.128803 3.456120 0.460610 10.693716 0.000000 0.000000 0.000000 -6.435586 0.009766 -0.234375 -8.435179 -0.332023 -0.400440 16.171410 1.288907 -0.888886 -4.615373 8.223353 -5.001704 -72.550285 15.948631 25.084919 -55.496819 -9.088625 31.709007 -8.291390 9.163076 -4.004311 6.893044 1.331294 -5.364465 57.811737 -20.000448 28.655277 51.027023 9.493812 30.037619 -2.886625 -9.952184 -3.433329 0.643685 5.787286 7.281270 19.725378 -3.339927 5.774926 -11.524534 -0.218701 2.171391 -4.041022 -5.953424 -6.395332 4.431996 4.410502 -18.527975 -2.366495 0.001154 -1.610149 
-39.100273 50.152294 -2.241129 2.872616 0.210976 10.888778 0.000000 0.000000 0.000000 -6.396739 0.166015 -0.087890 -8.592219 -0.898436 -0.097797 14.287224 2.440921 -1.143205 -4.027102 7.067027 -5.022349 -70.596779 15.809299 24.419918 -55.235825 -8.649464 32.255802 -7.842952 8.825948 -3.953588 6.884193 1.247300 -5.335166 57.520077 -18.937803 28.753687 50.566628 9.528111 29.450495 -3.106447 -9.575237 -3.429512 1.959056 5.509905 7.324235 18.058004 -3.369354 6.324889 -11.537197 -0.236702 2.412298 -3.268893 -6.096917 -6.702530 3.807224 4.486636 -18.555792 -1.668262 0.022027 -1.472125 
-38.736980 50.169392 -2.391448 1.809788 0.162815 11.269596 0.000000 0.000000 0.000000 -5.869207 0.039062 -0.097656 -7.829880 -0.742184 -0.166128 12.848344 1.816115 -1.025804 -4.094591 4.241181 -4.637756 -67.289886 15.687650 22.508230 -54.027851 -8.086496 31.137993 -6.006261 7.598828 -3.782461 7.146429 3.385598 -4.973288 55.497635 -17.739113 28.154606 49.755573 9.302676 29.072536 -3.751432 -9.109181 -3.408643 3.296480 5.151662 7.342505 17.179003 -3.225862 6.649158 -11.730024 -0.266104 2.800800 -1.903068 -6.185740 -6.942619 2.968119 4.323956 -18.751425 -1.441885 0.005004 -1.656168 
-38.379303 50.101830 -2.609927 0.940558 -0.219897 11.757874 0.000000 0.000000 0.000000 -5.576332 0.029296 -0.312500 -6.631309 0.087889 -0.292968 12.243677 0.322257 -0.429681 -4.472166 0.556699 -4.478601 -63.280411 15.718777 19.874630 -52.273235 -7.667379 29.441128 -2.534206 6.137682 -3.593602 7.846591 7.256912 -4.991630 51.458248 -16.686867 27.558176 49.100903 9.411113 27.767355 -4.717089 -8.399625 -3.374101 4.480844 5.165040 7.533815 15.893056 -3.164704 6.939727 -12.822773 -0.393826 3.517747 -1.376962 -6.159163 -7.159186 3.201388 4.354911 -19.122896 -1.113084 0.012692 -1.536061 
-38.015190 50.093807 -2.751764 -0.708191 0.066811 12.216813 0.000000 0.000000 0.000000 -4.403165 -0.195309 -0.332063 -5.058647 0.009765 -0.312500 11.230469 0.000000 -0.380859 -4.360052 -3.251785 -3.550819 -60.310757 14.646170 16.646061 -49.928459 -7.495930 27.338026 3.009672 5.023604 -3.477346 8.146544 9.962155 -4.130944 48.333443 -14.967542 26.693626 48.426586 9.370121 24.086098 -6.110632 -8.710113 -3.299344 5.826607 4.763350 7.663243 16.418987 -3.154737 7.051444 -13.219337 -0.498056 4.155480 0.048038 -6.530672 -7.656751 3.641153 4.241086 -18.925154 -0.666753 0.004296 -1.338194 
-37.670479 50.064854 -2.972850 -1.532468 -0.257245 12.675871 0.000000 0.000000 0.000000 -3.847713 0.009765 -0.332031 -4.277497 0.019531 -0.449219 11.623877 -0.429678 -0.371157 -4.668458 -4.423312 -3.085898 -60.318741 14.619368 12.293970 -47.921997 -6.746799 24.814734 7.342971 4.332889 -3.450247 8.176394 10.120357 -3.649960 48.492905 -14.140158 25.284767 48.821449 8.929761 26.694851 -9.714334 -8.963727 -3.108989 6.003543 4.833077 7.854527 16.837391 -3.115071 7.622661 -13.546362 -0.480806 4.058298 0.798846 -6.505692 -7.873728 3.358256 4.301561 -19.102001 -0.205788 -0.028727 -1.317404 
-37.345242 50.006176 -3.263853 -2.445206 -0.523306 13.018096 0.000000 0.000000 0.000000 -3.065844 0.126952 0.253927 -3.885991 -0.224608 -0.185584 13.194871 0.556579 -0.849569 -4.859097 -4.887151 -2.422242 -61.978703 15.219934 6.662188 -48.440170 -5.215166 22.311937 7.072025 5.186329 -3.406888 8.417701 9.728677 -2.885257 49.772564 -13.986681 23.354319 49.367447 8.215631 27.985115 -9.839528 -10.503944 -2.992638 6.223752 4.771976 7.733195 17.602245 -2.797144 7.196379 -14.496840 -0.614560 4.764630 1.190092 -6.422962 -7.833596 3.747889 4.083704 -19.242229 0.095673 -0.017925 -1.249281 
-37.009125 50.021206 -3.652848 -3.335297 -0.361614 12.978746 0.000000 0.000000 0.000000 -2.260473 -0.351532 0.751939 -2.890710 0.166016 -0.029297 13.937432 0.908032 -1.113296 -3.929541 -3.532909 -1.620325 -66.007614 15.243575 2.108863 -48.157391 -3.652107 23.511971 7.241815 8.729163 -3.238971 8.751671 9.368833 -2.077068 51.440086 -13.546391 22.069971 49.130646 7.830380 27.528160 -8.224429 -11.123516 -3.057384 6.324525 4.236442 7.516321 18.302599 -2.647071 7.806000 -14.598121 -0.675449 5.282101 1.551026 -6.831481 -8.187998 3.933561 3.987601 -19.279236 1.159435 -0.020779 -0.954456 
-36.728321 49.993259 -4.087717 -3.631729 -0.038085 12.841795 0.000000 0.000000 0.000000 -1.970368 -0.722451 1.367202 -2.041362 -0.126953 0.156250 14.948624 0.527200 -1.337924 -3.392629 -4.157442 -1.387798 -66.206230 16.181145 0.733460 -49.084305 -3.610968 18.456749 5.668607 10.581515 -3.252226 9.301058 8.998980 -1.748802 52.028774 -13.419964 22.588015 48.949932 8.419287 22.714926 -5.684300 -10.906383 -3.243242 5.930628 3.610366 7.256505 18.968462 -2.804004 7.944622 -14.567255 -0.739132 5.686736 0.613577 -7.432375 -8.130482 5.554890 3.590081 -18.850767 1.295114 -0.007428 -0.834715 
-36.465736 49.964729 -4.484391 -3.329217 0.503937 13.184192 0.000000 0.000000 0.000000 -2.082331 -1.425183 1.660614 -1.613700 -0.927731 0.146465 15.437481 0.741876 -1.660270 -3.090231 -4.890314 -1.526600 -65.127625 17.167299 2.373048 -49.628311 -4.269249 16.318783 4.947875 10.864769 -3.285048 9.563955 8.295796 -1.753933 52.527679 -13.183291 23.390379 48.899647 8.763753 21.743053 -4.910338 -9.706353 -3.329496 5.283838 2.721286 6.804638 19.031155 -3.079146 8.093697 -14.530845 -0.817026 6.434841 -0.312881 -8.434096 -8.443835 6.284971 3.421099 -18.922901 1.802167 -0.019313 -0.318456 
-36.241886 49.916069 -4.987979 -3.173789 0.579793 13.272274 0.000000 0.000000 0.000000 -1.859449 -1.746927 2.051614 -1.402328 -1.269518 0.263607 15.957163 0.566074 -1.962891 -2.507119 -5.403157 -1.312628 -63.401463 17.507389 5.326999 -49.661655 -5.142652 16.539883 1.921286 8.830852 -3.481073 9.796329 8.485616 -1.510358 52.369774 -13.012520 24.938337 49.576160 8.929626 26.272440 -8.669772 -8.398645 -3.196858 4.802102 2.382484 6.641103 18.880505 -3.341024 7.908461 -14.533341 -0.839649 6.686037 -1.669834 -9.005397 -8.505738 7.730315 3.396357 -18.403582 1.913606 0.006566 -0.142937 
-36.103188 49.876213 -5.509816 -3.105470 0.408409 13.447615 0.000000 0.000000 0.000000 -1.453402 -1.844120 2.374017 -1.110064 -1.669909 0.224514 15.159562 0.624460 -2.382884 -2.194177 -5.687170 -0.950651 -61.824169 17.856400 8.641122 -49.600548 -5.853610 18.980539 1.249029 6.760996 -3.500662 10.011998 8.476563 -1.129572 52.996582 -12.933062 25.392303 50.508110 8.637875 28.067507 -8.951016 -8.272570 -3.198672 4.205615 2.498663 6.858740 19.009190 -3.761635 7.309814 -14.876577 -0.975259 7.453709 -3.123979 -9.260969 -8.341202 9.301087 3.354687 -18.316153 2.314233 -0.026493 -0.019807 
-36.013081 49.817760 -5.998363 -3.436332 0.246773 13.613446 0.000000 0.000000 0.000000 -0.631168 -1.989967 2.706497 -0.777989 -2.119131 0.175661 14.152988 1.267827 -2.969319 -1.856835 -6.106989 -0.196181 -60.522598 17.890293 11.200742 -49.737564 -6.190791 23.487247 2.292732 6.299234 -3.479460 10.033694 8.267681 -0.302047 54.351322 -12.386785 25.151804 50.621269 8.400470 28.589785 -8.836648 -8.372384 -3.198049 4.017497 2.809640 7.224308 19.218924 -4.193012 6.438927 -15.203831 -1.050058 7.957924 -3.602163 -9.310549 -8.355895 9.750544 3.403692 -18.144695 2.251652 -0.033208 -0.312503 
-35.948463 49.772377 -6.465876 -3.443987 0.634552 14.112284 0.000000 0.000000 0.000000 0.038771 -2.711387 2.893854 -0.450588 -2.675781 0.029265 13.598409 1.745025 -3.370551 -1.827877 -7.063086 0.383776 -58.829151 18.061256 13.629314 -49.974590 -6.846468 26.347567 3.247623 6.772316 -3.444666 9.972073 7.914721 0.416326 55.495342 -11.660481 25.282459 50.099945 8.646924 27.133934 -9.111253 -9.480388 -3.109345 3.677097 2.429275 7.043733 19.034334 -4.355909 5.951480 -15.210793 -1.070857 8.012777 -4.569536 -10.094616 -8.678488 11.140664 3.504673 -17.463373 1.826733 -0.038780 -0.429270 
